<svg xmlns="http://www.w3.org/2000/svg" xmlns:xlink="http://www.w3.org/1999/xlink" viewBox="0 0 450.18 464.16"><defs><style>.cls-1{fill:none;}.cls-2{fill:#d1f4f6;}.cls-3{fill:#7dd3e9;}.cls-4{fill:#fff;}.cls-5{fill:#cc6164;}.cls-6{fill:#e4e4e0;}.cls-7{fill:#a34262;}.cls-8{fill:#c7d2d7;}.cls-9{fill:#99a3b0;}.cls-10{clip-path:url(#clip-path);}.cls-11{fill:#9fe0f0;}.cls-12{fill:#a8effa;}.cls-13{fill:#d9fbff;}.cls-14{clip-path:url(#clip-path-2);}.cls-15{fill:#bd6c67;}.cls-16{fill:#a64f5a;}.cls-17{fill:#6c6fc3;}.cls-18{fill:#56438c;}.cls-19{fill:#422c4f;}.cls-20{fill:#8c404c;}.cls-21{fill:#eba58e;}.cls-22{fill:#6a3649;}.cls-23{fill:#454f6b;}.cls-24{fill:#797c99;}.cls-25{fill:#e78882;}.cls-26{fill:#fbeed1;}.cls-27{fill:#f0bf9c;}</style><clipPath id="clip-path"><path class="cls-1" d="M50.1,379.72H196.82c23.35-44.26,34.7-97.69,20.24-145.6s-52.55-89.19-100.69-102.84c-22.15,27.15-37.18,61.46-39.1,96.44-22.59-3.37-47.34-1.2-69.78,3.13C2.5,283.38,20,336.39,50.1,379.72Z"/></clipPath><clipPath id="clip-path-2"><path class="cls-1" d="M400.08,379.72H253.36C230,335.46,218.65,282,233.11,234.12s52.56-89.19,100.7-102.84C356,158.43,371,192.74,372.9,227.72c22.6-3.37,47.35-1.2,69.78,3.13C447.68,283.38,430.2,336.39,400.08,379.72Z"/></clipPath></defs><g id="Capa_2" data-name="Capa 2"><g id="OBJECTS"><path class="cls-2" d="M411.65,379.72H45.27a31.31,31.31,0,0,1-25.73-13.39C-1.16,336.53-5.68,296,7.26,261.75,16.52,237.26,34.34,216.16,40,190.6c5.15-23.38-.51-47.6-1.94-71.51s3-50.88,22.12-65.22c15.69-11.73,37.7-11.76,56.17-5.26s34.33,18.63,50.18,30.13,32.55,22.79,51.64,27.16c22,5,44.91.45,66.8-4.91s44.15-11.53,66.61-9.61,45.65,13.94,53.77,35c9.32,24.11-3.29,52,3.78,76.83,4.32,15.22,15.47,27.38,23.94,40.74,20.69,32.61,21.71,78,8,115.34A31.31,31.31,0,0,1,411.65,379.72Z"/><path class="cls-2" d="M267,92.43c8.62-1.13,17.4-3.3,24.36-8.53,13-9.76,16.65-29,10.68-44.14S282,13.64,266.68,8.27s-32-5.72-48.24-4.45c-13.27,1-26.79,3.23-38.38,9.77-9.4,5.3-18.41,14.57-21.28,25.25-2.49,9.3,2.54,16.68,9.13,22.8C184.63,77.17,207,87.31,229.27,91.39A121.51,121.51,0,0,0,267,92.43Z"/><circle class="cls-3" cx="287.84" cy="40.22" r="30.65"/><path class="cls-4" d="M297.21,59l-7.68,3.52a4.07,4.07,0,0,1-3.38,0L278.47,59a16.55,16.55,0,0,1-9.66-15V30.07a4,4,0,0,1,2.05-3.51l15-8.46a4,4,0,0,1,4,0l15,8.46a4,4,0,0,1,2.05,3.51V43.92A16.55,16.55,0,0,1,297.21,59Z"/><polygon class="cls-5" points="299.91 36.32 291.74 36.32 291.74 28.15 283.94 28.15 283.94 36.32 275.77 36.32 275.77 44.11 283.94 44.11 283.94 52.29 291.74 52.29 291.74 44.11 299.91 44.11 299.91 36.32"/><circle class="cls-3" cx="314.78" cy="115.57" r="29.78"/><path class="cls-5" d="M334.44,102.76a12,12,0,0,0-17,0l-2.67,2.66-2.66-2.66a12,12,0,0,0-17,0h0a12,12,0,0,0,0,17l2.66,2.66,17,17,17-17h0l2.67-2.66A12,12,0,0,0,334.44,102.76Z"/><polygon class="cls-4" points="312.2 135.13 306.44 115.7 304.09 122.27 287.84 122.27 287.84 119.91 302.42 119.91 306.64 108.09 311.36 123.98 314.45 101.67 319.02 120.08 322.3 107.83 326.42 119.91 341.73 119.91 341.73 122.27 324.73 122.27 322.57 115.95 318.93 129.56 315.11 114.15 312.2 135.13"/><circle class="cls-3" cx="117.79" cy="98.98" r="29.18" transform="translate(-35.49 112.28) rotate(-45)"/><path class="cls-4" d="M100.83,97.83v9a7.85,7.85,0,1,0,15.69,0v-9Z"/><path class="cls-5" d="M116.52,88.86a7.85,7.85,0,1,0-15.69,0v9h15.69Z"/><path class="cls-6" d="M116.52,106.8v-9h-7.2L106.14,101a11.43,11.43,0,0,0-2.82,11.52,7.84,7.84,0,0,0,13.2-5.73Z"/><polygon class="cls-7" points="116.52 97.83 116.52 90.62 109.32 97.83 116.52 97.83"/><path class="cls-4" d="M115,97.2l-6.35,6.35a7.85,7.85,0,0,0,11.1,11.1l6.35-6.35Z"/><path class="cls-5" d="M132.46,102a7.85,7.85,0,0,0-11.1-11.1L115,97.2l11.1,11.1Z"/><circle class="cls-3" cx="179.12" cy="28.15" r="28.15" transform="translate(32.56 134.9) rotate(-45)"/><rect class="cls-4" x="175.09" y="15.36" width="9.04" height="23.77" transform="translate(71.87 -119.02) rotate(45)"/><rect class="cls-8" x="169.06" y="24.06" width="21.09" height="6.36" transform="translate(325.87 -80.49) rotate(135)"/><rect class="cls-4" x="162.89" y="35.39" width="15.4" height="1.73" transform="translate(75.6 -110.01) rotate(45)"/><rect class="cls-8" x="186.82" y="16.6" width="4.24" height="2.62" transform="translate(68.01 -128.35) rotate(45)"/><polygon class="cls-9" points="190.28 17.4 189.45 16.57 196.49 9.53 198.15 9.53 190.28 17.4"/><rect class="cls-8" x="165.53" y="35.74" width="3.46" height="7.7" transform="translate(76.99 -106.68) rotate(45)"/><rect class="cls-4" x="159.06" y="42.13" width="10.06" height="1.26" transform="translate(78.3 -103.51) rotate(45)"/><rect class="cls-9" x="167.34" y="36.49" width="3.46" height="2.57" transform="translate(76.23 -108.48) rotate(45)"/><path class="cls-5" d="M186.08,22l-8.25,8.24a2.27,2.27,0,0,1-3.23,0L173.33,29l-3.43,3.43,2.88,2.88L174.4,37l3.43-3.43L189.31,22h0A2.27,2.27,0,0,0,186.08,22Z"/><g class="cls-10"><path class="cls-11" d="M119.15,145.35h0a185.66,185.66,0,0,0-16.71,59.05,144.8,144.8,0,0,0,28.95,104,185.59,185.59,0,0,0,44.83,41.91h0a127.3,127.3,0,0,0-57.07-204.91Z"/><path class="cls-12" d="M194.39,242.37a1.24,1.24,0,0,0-1.67.68c-3.21,8.08-9.15,15.6-14.82,21.49a114.88,114.88,0,0,1-13.85,12.15c-2.41-10.5-5.15-20.91-8-31.3a79.78,79.78,0,0,0,11.57-10.17,66.8,66.8,0,0,0,7.3-9.26,48.08,48.08,0,0,0,5.45-11.47,1.38,1.38,0,0,0-.83-1.69,1.25,1.25,0,0,0-1.61.82c-4.55,14.73-18.21,25.85-22.64,29.14-2.58-9.09-5.3-18.15-8.22-27.14a77.68,77.68,0,0,0,11-10.63,57.87,57.87,0,0,0,12-21.55,1.37,1.37,0,0,0-.9-1.65,1.25,1.25,0,0,0-1.58.87c-2.09,7.64-6.38,14.39-10.63,19.61A79.17,79.17,0,0,1,146.24,213l-2.17-6.63-2.28-6.59c-1.49-4.4-3.09-8.77-4.69-13.13a62,62,0,0,0,7.63-12.43,1.31,1.31,0,0,0-.65-1.72,1.27,1.27,0,0,0-1.69.64,59.18,59.18,0,0,1-6.33,10.66c-2.74-7.27-5.52-14.53-8.49-21.72a1.26,1.26,0,0,0-1.66-.7,1.28,1.28,0,0,0-.7,1.66L128,169.9l2.66,6.89,2.64,6.89,2.53,6.94c-3.93-.91-12-3.14-17.28-6.84a1.29,1.29,0,0,0-1.78.28,1.24,1.24,0,0,0,.26,1.75c6.53,4.66,17,7.05,19.84,7.65,1.58,4.35,3,8.75,4.57,13.12s2.89,8.81,4.34,13.21a93.93,93.93,0,0,1-15-2.19,74.31,74.31,0,0,1-10.15-3.09,50.46,50.46,0,0,1-10-5,1.32,1.32,0,0,0-1.77.34,1.18,1.18,0,0,0,.29,1.7c7,4.65,15.23,7.32,22.27,8.86a94.88,94.88,0,0,0,15.12,2c2.8,9,5.48,18,8,27.13a98,98,0,0,1-14.95-2.72,70.94,70.94,0,0,1-10-3.4,49.75,49.75,0,0,1-4.92-2.41,43,43,0,0,1-4.66-2.93,1.29,1.29,0,0,0-1.78.25,1.19,1.19,0,0,0,.22,1.71c6.61,4.85,14.64,7.78,21.69,9.55a94.85,94.85,0,0,0,15.12,2.58c.69,2.59,1.41,5.17,2.08,7.77l2,7.81c1.34,5.2,2.47,10.44,3.71,15.67a154.3,154.3,0,0,1-17.77-4.51c-7.67-2.48-16.37-5.91-23-10.72a1.31,1.31,0,0,0-1.78.25,1.17,1.17,0,0,0,.21,1.7A66.11,66.11,0,0,0,133,277a119.83,119.83,0,0,0,12.9,4.79,151.9,151.9,0,0,0,17.72,4.33l2.49,11.66,2.29,11.7h0c.29,1.41.53,2.83.78,4.24-1.43-.38-3.59-1-6.19-1.77s-5.67-1.81-8.85-3c-6.39-2.4-13.24-5.57-18.41-9.52a1.33,1.33,0,0,0-1.8.21,1.18,1.18,0,0,0,.19,1.71c5.82,4.47,13.55,7.95,20.5,10.48a151.15,151.15,0,0,0,15,4.66L171,324.2l1.24,7.77a1.28,1.28,0,0,0,2.52-.4l-1.31-8.2L172,315.2h0l-1-5.39a114.16,114.16,0,0,0,12.29-10c5.48-5.08,11.23-11.62,14.6-18.58a1.36,1.36,0,0,0-.57-1.79,1.24,1.24,0,0,0-1.71.57c-3,6.14-8,12-13,16.83A117.3,117.3,0,0,1,170.5,307c-.92-4.62-1.76-9.25-2.78-13.85s-1.94-9.21-3-13.79a115.74,115.74,0,0,0,14-11.88,92.93,92.93,0,0,0,9.15-10.62,58.71,58.71,0,0,0,7.27-12.76A1.39,1.39,0,0,0,194.39,242.37Z"/><path class="cls-12" d="M23.07,238.55h0C17,328.94,85.41,398.37,175.88,393.63h0C182,303.24,113.54,233.81,23.07,238.55Z"/><path class="cls-13" d="M132.84,293.16a1.29,1.29,0,0,0-1.15,1.43c1.89,17.17-5.78,37.86-8.25,44l-23.09-23.44c2-4.12,10-22.16,7.36-39.17a1.29,1.29,0,0,0-1.48-1.08,1.31,1.31,0,0,0-1.09,1.49c2.36,15.1-4.39,31.61-6.75,36.78L78.12,292.56c1.94-4.08,9.76-21.89,7.14-39.38a1.3,1.3,0,1,0-2.57.38c2.32,15.55-4.22,31.88-6.53,37L56.22,270.33a70.09,70.09,0,0,0,2-14.69,1.31,1.31,0,1,0-2.61,0,65.57,65.57,0,0,1-1.56,12.53L37.38,251.22A1.3,1.3,0,1,0,35.52,253l21.19,21.5c-4,.81-12.59,2.19-19.05.75a1.31,1.31,0,0,0-.56,2.55c8.12,1.8,18.87-.43,21.78-1.1L78.82,297c-5.17,2.23-21.58,8.54-37.1,6a1.3,1.3,0,0,0-.43,2.57c17.46,2.87,35.37-4.68,39.48-6.57l20.28,20.58c-5.19,2.28-21.79,8.79-36.87,6.21a1.3,1.3,0,1,0-.44,2.56c17,2.91,35.12-4.86,39.26-6.79L126.1,345c-6.14,2.38-26.95,9.74-44.08,7.6a1.3,1.3,0,0,0-.32,2.58c19.11,2.39,41.76-6.28,46.39-8.16l17.1,17.35h0l3.09,3.13c-5.7,2-23.38,7.77-36.84,6.31a1.3,1.3,0,0,0-.28,2.59c15.25,1.66,34.88-5.26,39.13-6.85L161.57,381a1.3,1.3,0,0,0,1.86-1.82l-11.87-12.05h0l-3.91-4c1.65-4.23,8.86-23.76,7.43-39a1.3,1.3,0,0,0-2.59.25c1.26,13.48-4.75,31.07-6.86,36.74l-20.19-20.5c1.95-4.59,10.95-27.11,8.85-46.26A1.3,1.3,0,0,0,132.84,293.16Z"/></g><g class="cls-14"><path class="cls-11" d="M331,145.35h0c9.34,20.17,14.76,40,16.72,59.05a144.8,144.8,0,0,1-28.95,104A185.59,185.59,0,0,1,274,350.26h0A127.31,127.31,0,0,1,331,145.35Z"/><path class="cls-12" d="M255.78,242.37a1.24,1.24,0,0,1,1.68.68c3.21,8.08,9.15,15.6,14.82,21.49a114.88,114.88,0,0,0,13.85,12.15c2.41-10.5,5.15-20.91,8-31.3a79.78,79.78,0,0,1-11.57-10.17,66.8,66.8,0,0,1-7.3-9.26,48.08,48.08,0,0,1-5.45-11.47,1.36,1.36,0,0,1,.82-1.69,1.24,1.24,0,0,1,1.61.82c4.56,14.73,18.22,25.85,22.65,29.14,2.58-9.09,5.3-18.15,8.22-27.14a77.68,77.68,0,0,1-11-10.63,57.87,57.87,0,0,1-12-21.55,1.36,1.36,0,0,1,.9-1.65,1.25,1.25,0,0,1,1.58.87c2.08,7.64,6.38,14.39,10.62,19.61A79.67,79.67,0,0,0,303.94,213l2.17-6.63,2.28-6.59c1.49-4.4,3.09-8.77,4.69-13.13a61.52,61.52,0,0,1-7.63-12.43,1.31,1.31,0,0,1,.65-1.72,1.26,1.26,0,0,1,1.68.64,59.13,59.13,0,0,0,6.34,10.66c2.74-7.27,5.52-14.53,8.48-21.72a1.28,1.28,0,0,1,2.37,1l-2.78,6.84-2.66,6.89-2.64,6.89-2.54,6.94c3.94-.91,12-3.14,17.29-6.84a1.29,1.29,0,0,1,1.78.28,1.24,1.24,0,0,1-.26,1.75c-6.53,4.66-17,7.05-19.84,7.65-1.58,4.35-3.05,8.75-4.58,13.12s-2.88,8.81-4.33,13.21a93.93,93.93,0,0,0,14.95-2.19,74.73,74.73,0,0,0,10.15-3.09,50.46,50.46,0,0,0,10-5,1.32,1.32,0,0,1,1.77.34,1.18,1.18,0,0,1-.29,1.7c-7.05,4.65-15.23,7.32-22.28,8.86a94.6,94.6,0,0,1-15.12,2c-2.8,9-5.47,18-7.95,27.13a98,98,0,0,0,14.95-2.72,71.38,71.38,0,0,0,10-3.4,52,52,0,0,0,4.92-2.41,42.82,42.82,0,0,0,4.65-2.93,1.31,1.31,0,0,1,1.79.25,1.19,1.19,0,0,1-.22,1.71c-6.61,4.85-14.64,7.78-21.69,9.55a94.91,94.91,0,0,1-15.13,2.58c-.69,2.59-1.41,5.17-2.07,7.77l-2,7.81c-1.35,5.2-2.47,10.44-3.71,15.67A154.3,154.3,0,0,0,305,278.89c7.66-2.48,16.36-5.91,22.94-10.72a1.33,1.33,0,0,1,1.79.25,1.17,1.17,0,0,1-.21,1.7A66.44,66.44,0,0,1,317.21,277a119.83,119.83,0,0,1-12.9,4.79,151.4,151.4,0,0,1-17.73,4.33l-2.49,11.66-2.29,11.7h0c-.28,1.41-.52,2.83-.78,4.24,1.44-.38,3.6-1,6.2-1.77s5.66-1.81,8.85-3c6.39-2.4,13.24-5.57,18.41-9.52a1.31,1.31,0,0,1,1.79.21,1.17,1.17,0,0,1-.18,1.71c-5.82,4.47-13.55,7.95-20.5,10.48a151.06,151.06,0,0,1-15.06,4.66l-1.37,7.74L277.93,332a1.28,1.28,0,1,1-2.52-.4l1.31-8.2,1.45-8.17h0l1-5.39a113.94,113.94,0,0,1-12.3-10c-5.47-5.08-11.23-11.62-14.59-18.58a1.36,1.36,0,0,1,.57-1.79,1.24,1.24,0,0,1,1.71.57c3,6.14,8,12,13,16.83A118.22,118.22,0,0,0,279.68,307c.92-4.62,1.76-9.25,2.78-13.85s1.94-9.21,3-13.79a115.74,115.74,0,0,1-14-11.88,92.93,92.93,0,0,1-9.15-10.62,58.3,58.3,0,0,1-7.27-12.76A1.4,1.4,0,0,1,255.78,242.37Z"/><path class="cls-12" d="M427.11,238.55h0c6.07,90.39-62.34,159.82-152.81,155.08h0C268.22,303.24,336.64,233.81,427.11,238.55Z"/><path class="cls-13" d="M317.34,293.16a1.3,1.3,0,0,1,1.15,1.43c-1.89,17.17,5.78,37.86,8.25,44l23.09-23.44c-2-4.12-10-22.16-7.37-39.17a1.31,1.31,0,0,1,2.58.41c-2.37,15.1,4.39,31.61,6.75,36.78l20.27-20.58c-1.94-4.08-9.76-21.89-7.15-39.38a1.3,1.3,0,0,1,2.58.38c-2.33,15.55,4.22,31.88,6.53,37L394,270.33a70.09,70.09,0,0,1-2-14.69,1.3,1.3,0,1,1,2.6,0,66.27,66.27,0,0,0,1.57,12.53l16.67-16.92a1.3,1.3,0,1,1,1.85,1.82l-21.18,21.5c4,.81,12.59,2.19,19,.75a1.31,1.31,0,0,1,.56,2.55c-8.12,1.8-18.88-.43-21.78-1.1L371.36,297c5.16,2.23,21.58,8.54,37.1,6A1.3,1.3,0,0,1,410,304a1.32,1.32,0,0,1-1.07,1.5c-17.46,2.87-35.38-4.68-39.49-6.57l-20.27,20.58c5.19,2.28,21.79,8.79,36.87,6.21a1.3,1.3,0,0,1,.44,2.56c-17,2.91-35.12-4.86-39.27-6.79L324.08,345c6.14,2.38,26.95,9.74,44.08,7.6a1.3,1.3,0,1,1,.32,2.58c-19.11,2.39-41.76-6.28-46.39-8.16L305,364.33h0l-3.09,3.13c5.7,2,23.37,7.77,36.84,6.31a1.31,1.31,0,0,1,1.43,1.16,1.29,1.29,0,0,1-1.15,1.43c-15.25,1.66-34.88-5.26-39.14-6.85L288.6,381a1.3,1.3,0,1,1-1.85-1.82l11.87-12.05h0l3.92-4c-1.65-4.23-8.86-23.76-7.43-39a1.3,1.3,0,0,1,2.59.25c-1.26,13.48,4.74,31.07,6.85,36.74l20.2-20.5c-1.95-4.59-11-27.11-8.85-46.26A1.3,1.3,0,0,1,317.34,293.16Z"/></g><path class="cls-3" d="M443,381.5h0a1.78,1.78,0,0,0-1.78-1.78H9a1.78,1.78,0,0,0-1.78,1.78h0A1.78,1.78,0,0,0,9,383.29H42.35a1.78,1.78,0,0,1,1.78,1.78h0a1.78,1.78,0,0,1-1.78,1.78H35.26a1.77,1.77,0,0,0-1.78,1.78h0a1.78,1.78,0,0,0,1.78,1.78H427.45a1.78,1.78,0,0,0,1.78-1.78h0a1.78,1.78,0,0,0-1.78-1.78H356.92a1.78,1.78,0,0,1-1.78-1.78h0a1.77,1.77,0,0,1,1.78-1.78h84.3A1.79,1.79,0,0,0,443,381.5Z"/><rect class="cls-3" x="18.71" y="386.85" width="9.34" height="3.56" rx="1.78"/><path class="cls-15" d="M165.69,249.79l-34.33-7.14-6.53,60.68a65.68,65.68,0,0,0-.34,9.3l2.23,67.09H159.5V308.27Z"/><polygon class="cls-16" points="131.36 242.65 165.69 249.79 164.32 262.68 130.8 247.87 131.36 242.65"/><path class="cls-15" d="M284.49,249.79l34.33-7.14,6.53,60.68a67.2,67.2,0,0,1,.34,9.3l-2.24,67.09H290.68V308.27Z"/><polygon class="cls-16" points="318.82 242.65 284.49 249.79 285.85 262.68 319.38 247.87 318.82 242.65"/><path class="cls-17" d="M284.49,283.79c7.93-15.21,4.72-30.23,3.6-34.71l39-8.16-12.27-31.28a44,44,0,0,0-27.8-25.93l-33.73-10.59c-3.94,8.22-11.65,18.69-28.23,18.69s-24.29-10.47-28.23-18.69l-33.73,10.59a44,44,0,0,0-27.81,25.93l-12.26,31.28,39,8.16c-1.12,4.48-4.33,19.5,3.6,34.71,0,0,3.82,28.66,3.82,43.46s-12.42,30.05-12.42,52.47h136c0-22.42-12.43-37.67-12.43-52.47S284.49,283.79,284.49,283.79Z"/><polygon class="cls-4" points="162.09 249.08 165.12 237.87 127.26 230.2 123.06 240.92 162.09 249.08"/><path class="cls-18" d="M255.5,173.81l-2.18-.69c-3.94,8.22-11.65,18.69-28.23,18.69s-24.29-10.47-28.23-18.69l-2.18.69c-3.5,10.4-1.3,22.42,3.59,32.26A63.26,63.26,0,0,0,214.2,225.8a4.17,4.17,0,0,0,6.8-2.54,147.49,147.49,0,0,1,4.09-17.53,145.52,145.52,0,0,1,4.08,17.53,4.17,4.17,0,0,0,6.8,2.54,63.15,63.15,0,0,0,15.94-19.73C256.8,196.23,259,184.21,255.5,173.81Z"/><path class="cls-4" d="M255.5,173.81l-2.18-.69c-3.94,8.22-11.65,18.69-28.23,18.69s-24.29-10.47-28.23-18.69l-2.18.69a41.91,41.91,0,0,0,1.44,22.82c2.13,6,8.42,13.87,14.4,19.58a5.39,5.39,0,0,0,8.75-1.94l5.82-15,5.81,15a5.4,5.4,0,0,0,8.76,1.94c6-5.71,12.27-13.62,14.39-19.58A41.82,41.82,0,0,0,255.5,173.81Z"/><path class="cls-19" d="M225.09,380H156.84v-.25c0-12.37,3.92-23,6.79-30.69l.46.17c-3.66,9.9-6.71,19-6.75,30.27h67.75Z"/><path class="cls-19" d="M200.44,294.52a.26.26,0,0,1-.25-.22.25.25,0,0,1,.22-.27c1.05-.13,2.09-.28,3.11-.46,9-1.58,15.54-5.1,18.35-9.91a.25.25,0,1,1,.43.25c-2.88,4.94-9.52,8.55-18.69,10.16-1,.18-2.08.33-3.14.45Z"/><path class="cls-19" d="M167.23,230.45a.25.25,0,0,1-.19-.09c0-.06-5-6-11.37-8.1a.25.25,0,0,1-.16-.32.25.25,0,0,1,.31-.16c6.55,2.14,11.56,8.2,11.61,8.26a.25.25,0,0,1,0,.35A.23.23,0,0,1,167.23,230.45Z"/><path class="cls-19" d="M166.41,233.45a.25.25,0,0,1-.24-.2c-.25-1.2-4.18-4.63-10.31-4.63h-.11a.25.25,0,0,1,0-.5h.12c6.33,0,10.49,3.56,10.8,5a.25.25,0,0,1-.19.3Z"/><path class="cls-19" d="M172.79,290.53a.2.2,0,0,1-.11,0,16.64,16.64,0,0,1-7.21-6.6c-7.26-13.91-5.39-27.83-3.62-34.88l7-25.7a.25.25,0,0,1,.48.13l-7,25.7c-1.75,7-3.6,20.75,3.58,34.52a16.1,16.1,0,0,0,7,6.38.25.25,0,0,1-.12.48Z"/><polygon class="cls-4" points="288.09 249.08 285.06 237.87 322.91 230.2 327.12 240.92 288.09 249.08"/><path class="cls-19" d="M225.09,380h68.25v-.25c0-12.37-3.92-23-6.79-30.69l-.47.17c3.67,9.9,6.71,19,6.76,30.27H225.09Z"/><path class="cls-19" d="M249.74,294.52a.24.24,0,0,0,.24-.22.23.23,0,0,0-.22-.27c-1-.13-2.09-.28-3.1-.46-9-1.58-15.54-5.1-18.36-9.91a.25.25,0,0,0-.43.25c2.89,4.94,9.53,8.55,18.7,10.16,1,.18,2.08.33,3.14.45Z"/><path class="cls-19" d="M282.94,230.45a.25.25,0,0,0,.2-.09c.05-.06,5-6,11.37-8.1a.26.26,0,0,0,.16-.32.25.25,0,0,0-.32-.16c-6.54,2.14-11.55,8.2-11.6,8.26a.24.24,0,0,0,0,.35A.22.22,0,0,0,282.94,230.45Z"/><path class="cls-19" d="M283.76,233.45a.26.26,0,0,0,.25-.2c.25-1.2,4.18-4.63,10.3-4.63h.12a.25.25,0,0,0,.25-.25.25.25,0,0,0-.25-.25h-.12c-6.32,0-10.48,3.56-10.79,5a.25.25,0,0,0,.19.3Z"/><path class="cls-19" d="M277.38,290.53l.12,0a16.64,16.64,0,0,0,7.21-6.6C292,270,290.1,256.07,288.33,249l-7-25.7a.25.25,0,0,0-.31-.17.24.24,0,0,0-.17.3l7,25.7c1.74,7,3.6,20.75-3.58,34.52a16.16,16.16,0,0,1-7,6.38.25.25,0,0,0-.11.34A.25.25,0,0,0,277.38,290.53Z"/><path class="cls-15" d="M253.32,173.12l-11.19-3.51V153.47H208.05v16.14l-11.19,3.51c3.94,8.22,11.64,18.69,28.23,18.69h0C241.67,191.81,249.38,181.34,253.32,173.12Z"/><path class="cls-19" d="M225.09,153.47h-17V157c3.92,7.84,12.95,10.53,17,10.53s13.12-2.69,17-10.53v-3.48Z"/><circle class="cls-19" cx="189.04" cy="138.21" r="25.12" transform="translate(-42.36 174.15) rotate(-45)"/><circle class="cls-19" cx="261.13" cy="138.21" r="25.12" transform="translate(32.31 325.11) rotate(-67.13)"/><circle class="cls-16" cx="187.82" cy="131.93" r="11.47" transform="translate(33.99 302.27) rotate(-83)"/><path class="cls-20" d="M193.85,131.93a6,6,0,1,1-6-6A6,6,0,0,1,193.85,131.93Z"/><circle class="cls-16" cx="262.36" cy="131.93" r="11.47" transform="translate(-23.21 63.48) rotate(-13.22)"/><path class="cls-20" d="M256.32,131.93a6,6,0,1,0,6-6A6,6,0,0,0,256.32,131.93Z"/><path class="cls-15" d="M225.09,66.35h0a38,38,0,0,0-38,38v1.91a38.13,38.13,0,0,0,1,8.65l5.52,23.61a27.34,27.34,0,0,0,12,16.87l4.19,2.65a28.55,28.55,0,0,0,15.32,4.45h0A28.58,28.58,0,0,0,240.41,158l4.19-2.65a27.36,27.36,0,0,0,12-16.87l5.52-23.61a37.58,37.58,0,0,0,1-8.65v-1.91A38,38,0,0,0,225.09,66.35Z"/><path class="cls-19" d="M207,100.77a13.33,13.33,0,0,0-10.38,5.75l21.23-1A13.33,13.33,0,0,0,207,100.77Z"/><path class="cls-19" d="M243.15,100.77a13.33,13.33,0,0,1,10.38,5.75l-21.23-1A13.33,13.33,0,0,1,243.15,100.77Z"/><path class="cls-16" d="M231.51,133.3H218.67a19.12,19.12,0,0,0,3.24,2.35,6.62,6.62,0,0,0,3.89,1C227.89,136.4,230,134.71,231.51,133.3Z"/><path class="cls-16" d="M231.52,149.42H220.64a8.9,8.9,0,0,0,5.37,2.09A9.31,9.31,0,0,0,231.52,149.42Z"/><path class="cls-19" d="M208.73,112.67a3.49,3.49,0,0,0-2.49,1,40.24,40.24,0,0,1-3.94-1.83,7.85,7.85,0,0,0,3,3.5,3.33,3.33,0,0,0-.09.78,3.5,3.5,0,1,0,3.49-3.5Z"/><path class="cls-19" d="M241.45,112.67a3.51,3.51,0,0,1,2.49,1,40.07,40.07,0,0,0,3.93-1.83,7.77,7.77,0,0,1-3,3.5,3.33,3.33,0,0,1,.09.78,3.5,3.5,0,1,1-3.49-3.5Z"/><path class="cls-4" d="M238,138a32.33,32.33,0,0,1-25.76.55c3,4.53,7.8,7.87,12.64,7.85S234.94,142.52,238,138Z"/><path class="cls-19" d="M261.51,71.72c-8.08-11-22.76-16.12-36.44-15.65-13.68-.47-28.36,4.61-36.44,15.65-6.76,9.22-8.28,21.46-6.6,32.77s6.86,22.73,11.38,33.22l-5-28.09c4.81-5.4,3.56-14,7.25-20.22,2.72-4.56,7.85-7.27,13.07-8.27s11-.75,16.3-.26c5.29-.49,11.08-.75,16.3.26s10.35,3.71,13.06,8.27c3.7,6.22,2.45,14.82,7.25,20.22l-5,28.09c4.53-10.49,9.71-21.92,11.39-33.22S268.26,80.94,261.51,71.72Z"/><path class="cls-19" d="M246.51,188a.2.2,0,0,1-.16-.07.22.22,0,0,1,0-.32,30.72,30.72,0,0,0,4.51-5.05.22.22,0,0,1,.31-.06.23.23,0,0,1,0,.32,30.71,30.71,0,0,1-4.57,5.13A.25.25,0,0,1,246.51,188Z"/><path class="cls-19" d="M240.89,192a.23.23,0,0,1-.2-.12.22.22,0,0,1,.09-.3,33.42,33.42,0,0,0,2.84-1.82.22.22,0,1,1,.26.36c-.92.66-1.89,1.28-2.88,1.85A.2.2,0,0,1,240.89,192Z"/><path class="cls-19" d="M225.11,196.29h-.91a32.07,32.07,0,0,1-15.33-4.57.23.23,0,0,1-.08-.31.23.23,0,0,1,.31-.08,30.66,30.66,0,0,0,27.52,2.29.23.23,0,0,1,.29.13.21.21,0,0,1-.13.29A32.07,32.07,0,0,1,225.11,196.29Z"/><path class="cls-19" d="M204.08,188.16a.2.2,0,0,1-.14-.06,30.67,30.67,0,0,1-5.89-7,.23.23,0,0,1,.39-.23,30.63,30.63,0,0,0,5.79,6.86.22.22,0,0,1-.15.39Z"/><path class="cls-19" d="M242.8,208.78a.18.18,0,0,1-.15-.07.21.21,0,0,1,0-.31,42.27,42.27,0,0,0,10.25-18.1.23.23,0,0,1,.28-.16.21.21,0,0,1,.15.27A42.7,42.7,0,0,1,243,208.71.24.24,0,0,1,242.8,208.78Z"/><path class="cls-19" d="M200.84,200.49a.22.22,0,0,1-.2-.12,32.26,32.26,0,0,1-2.49-6.14.22.22,0,0,1,.15-.28.22.22,0,0,1,.28.15,32.72,32.72,0,0,0,2.45,6.06.22.22,0,0,1-.09.3A.19.19,0,0,1,200.84,200.49Z"/><path class="cls-19" d="M206.71,307.85a.23.23,0,0,1-.23-.21.23.23,0,0,1,.21-.24c15.48-.9,31.62-5,46.9-9.43a299.88,299.88,0,0,1-64.44,1.22.23.23,0,0,1-.2-.25.22.22,0,0,1,.24-.2,298.7,298.7,0,0,0,67.22-1.6.22.22,0,0,1,.25.18.22.22,0,0,1-.15.26c-16.13,4.77-33.32,9.32-49.79,10.27Z"/><path class="cls-19" d="M240.17,323.32a208.23,208.23,0,0,1-49.76-6,.22.22,0,0,1-.16-.27.24.24,0,0,1,.27-.17,207.62,207.62,0,0,0,70,5,.22.22,0,0,1,.24.2.23.23,0,0,1-.2.25Q250.36,323.32,240.17,323.32Z"/><path class="cls-19" d="M240.16,331.2a119.77,119.77,0,0,1-41-7.24.21.21,0,0,1-.13-.29.22.22,0,0,1,.28-.13,119.31,119.31,0,0,0,56.49,6.18.22.22,0,0,1,.25.2.22.22,0,0,1-.19.25A118.77,118.77,0,0,1,240.16,331.2Z"/><path class="cls-19" d="M252.88,349.11a94.65,94.65,0,0,1-56-18.44.22.22,0,0,1,0-.31.24.24,0,0,1,.32-.05,94,94,0,0,0,63.08,18.05.23.23,0,0,1,0,.45Q256.59,349.11,252.88,349.11Z"/><path class="cls-3" d="M152.77,458.72h0a1.09,1.09,0,0,0-1.09-1.09H34.39a1.09,1.09,0,0,0-1.09,1.09h0a1.08,1.08,0,0,0,1.09,1.08H54.81a1.08,1.08,0,0,1,1.08,1.09h0A1.08,1.08,0,0,1,54.81,462H50.47a1.09,1.09,0,0,0-1.09,1.09h0a1.09,1.09,0,0,0,1.09,1.09h92.79a1.09,1.09,0,0,0,1.09-1.09h0a1.09,1.09,0,0,0-1.09-1.09H100.15a1.09,1.09,0,0,1-1.09-1.09h0a1.09,1.09,0,0,1,1.09-1.09h51.53A1.08,1.08,0,0,0,152.77,458.72Z"/><path class="cls-3" d="M41.45,464.16H45a1.09,1.09,0,0,0,1.09-1.09h0A1.09,1.09,0,0,0,45,462H41.45a1.09,1.09,0,0,0-1.09,1.09h0A1.09,1.09,0,0,0,41.45,464.16Z"/><path class="cls-3" d="M434.69,458.72h0a1.08,1.08,0,0,0-1.09-1.09H316.32a1.09,1.09,0,0,0-1.09,1.09h0a1.08,1.08,0,0,0,1.09,1.08h20.41a1.09,1.09,0,0,1,1.09,1.09h0a1.09,1.09,0,0,1-1.09,1.09H332.4a1.09,1.09,0,0,0-1.09,1.09h0a1.09,1.09,0,0,0,1.09,1.09h92.79a1.08,1.08,0,0,0,1.08-1.09h0a1.08,1.08,0,0,0-1.08-1.09H382.07a1.09,1.09,0,0,1-1.09-1.09h0a1.09,1.09,0,0,1,1.09-1.09H433.6A1.08,1.08,0,0,0,434.69,458.72Z"/><path class="cls-3" d="M323.37,464.16h3.54a1.08,1.08,0,0,0,1.08-1.09h0a1.08,1.08,0,0,0-1.08-1.09h-3.54a1.09,1.09,0,0,0-1.09,1.09h0A1.09,1.09,0,0,0,323.37,464.16Z"/><path class="cls-21" d="M349.73,191.4a9.81,9.81,0,0,1-9.08-1.85,16.14,16.14,0,0,1-5.09-8A47.64,47.64,0,0,1,334,172c-.36-3.78-.65-7.89,1.43-11.08,1.83-2.82,5.15-4.29,8.4-5.18,3.45-.95,7.2-1.41,10.56-.17,4.35,1.62,7.28,5.88,8.51,10.35s1,9.19.8,13.83q-.22,4.84-.46,9.69l1.43,6.31-13.57,2Z"/><polygon class="cls-3" points="348.31 198.13 349.22 193.53 365.46 191.29 366.57 195.46 348.31 198.13"/><path class="cls-22" d="M362.55,158.74a8.34,8.34,0,0,0-7.66-7.88c-2.92-.14-5.77,1.31-8.68,1-3.44-.38-6.24-3.15-9.66-3.67a8.41,8.41,0,0,0-8.77,5.35,9.58,9.58,0,0,0,2.63,10.13,11.69,11.69,0,0,0,10.66,2.25,7.82,7.82,0,0,0,3,7.36,8.76,8.76,0,0,0,2.09,8.14,8,8,0,0,1,2-5.82,3.32,3.32,0,0,1,4-.45,3.93,3.93,0,0,1,1.39,2.77,7.3,7.3,0,0,1-5.08,7.82c3.65,3.38,9.82,4.6,14.71,3.69,3.19-.59,4.82-4.76,5.8-7.85a48.7,48.7,0,0,0,1.72-9.54,27,27,0,0,0,.21-5.95,9.29,9.29,0,0,0-2.28-5.41A7.19,7.19,0,0,0,362.55,158.74Z"/><path class="cls-19" d="M348.28,183.73a.81.81,0,0,1-.27,0c-.27-.1-.6-.38-.67-1.18a7.94,7.94,0,0,1,1.51-5.33,2,2,0,0,1,1.46-1,1.6,1.6,0,0,1,1.42.9,4.39,4.39,0,0,1,.4,1.54.23.23,0,0,1-.19.26.22.22,0,0,1-.25-.2,4,4,0,0,0-.36-1.38,1.2,1.2,0,0,0-1-.68h0a1.56,1.56,0,0,0-1.12.79,7.61,7.61,0,0,0-1.43,5c0,.31.12.7.38.8a.52.52,0,0,0,.47-.12,1.31,1.31,0,0,0,.33-.53,3.31,3.31,0,0,0,.1-2.13.22.22,0,0,1,.15-.28.22.22,0,0,1,.28.15,3.82,3.82,0,0,1-.11,2.43,1.72,1.72,0,0,1-.46.7A1,1,0,0,1,348.28,183.73Z"/><path class="cls-19" d="M348.25,178.83a.19.19,0,0,1-.17-.08.22.22,0,0,1,0-.32,2.2,2.2,0,0,1,2.35-.22.23.23,0,0,1,.1.3.24.24,0,0,1-.31.1,1.74,1.74,0,0,0-1.86.17A.19.19,0,0,1,348.25,178.83Z"/><path class="cls-9" d="M274.37,219.15c0-8.09-4.6-14.79-10.64-16.11v-.25h-2.16c-7.07,0-12.8,7.33-12.8,16.36s5.73,16.36,12.8,16.36h2.16v-.25C269.77,234,274.37,227.24,274.37,219.15Z"/><ellipse class="cls-8" cx="263.73" cy="219.15" rx="12.8" ry="16.36"/><path class="cls-9" d="M280.77,219.15c0-4.86-2.77-8.89-6.4-9.69v-.15H267c-4.25,0-7.7,4.41-7.7,9.84S262.72,229,267,229h7.4v-.15C278,228.05,280.77,224,280.77,219.15Z"/><ellipse class="cls-8" cx="274.37" cy="219.15" rx="7.7" ry="9.84"/><path class="cls-23" d="M271.14,223c5.48,15.56,5.8,32.51,12.19,47.78,4.62,11.05,13.35,21.79,25.66,24.27,11.43,2.3,23.27-3.36,26.77-14.81,2.12-6.93,1.6-14.44,1.66-21.58.07-7.68.25-15.35.71-23,1.12-18.62,3.86-37.41,11.26-54.67.45-1-1.09-2-1.55-.9-10.68,24.91-12,52.58-12.22,79.33-.06,7,.46,14.35-1.8,21-2.62,7.74-9.61,12.55-17.64,13.23-14.18,1.2-25.2-10.19-30.6-22.18-7-15.5-7.1-33-12.71-49-.38-1.08-2.11-.61-1.73.48Z"/><circle class="cls-24" cx="348.78" cy="180.52" r="1.68"/><polygon class="cls-23" points="381.15 315.71 379.67 447.09 403.8 447.09 413.68 299 381.15 315.71"/><path class="cls-19" d="M385.26,313.6l-1.66,25.91-2.45.33v42.28L390,343.75a123.75,123.75,0,0,0,21.1-5.09L413.68,299Z"/><polygon class="cls-23" points="353.67 315.71 352.19 447.09 376.32 447.09 386.2 299 353.67 315.71"/><path class="cls-19" d="M353.67,315.71v22.16c8.16,4.81,17.91,6.75,27.48,6.6.71,0,1.42,0,2.13-.07l2-30.8.94-14.6Z"/><path class="cls-19" d="M376.73,440.9h0a.22.22,0,0,1-.21-.23l6-87.9c0-.12.12-.24.24-.21a.22.22,0,0,1,.2.24l-6,87.89A.22.22,0,0,1,376.73,440.9Z"/><path class="cls-21" d="M290.42,228.14l-3.89-1.42-5.22-11a7.88,7.88,0,0,0-2.4-2.94l-4.27-3.22a1.25,1.25,0,0,0-1.57.07h0a1.23,1.23,0,0,0-.1,1.72l4.52,5.22-8.3-3.2a1.3,1.3,0,0,0-1.67.74h0a1.29,1.29,0,0,0,.55,1.61l7.7,4.44-7.28-.69a1.47,1.47,0,0,0-1.59,1.26h0a1.46,1.46,0,0,0,1.1,1.62l7.47,1.85-6.09.53a1.23,1.23,0,0,0-1.11,1.41h0a1.23,1.23,0,0,0,1.23,1l5.22-.06c.82,6,6.73,7.33,6.73,7.33l6,3.06Z"/><path class="cls-25" d="M290.42,228.14l-2.8-1c-4.29,1.75-5.14,5.58-5.61,7.59l5.42,2.77Z"/><path class="cls-4" d="M386.34,203.82A16,16,0,0,0,369.6,195l-25.27,3.69A19.37,19.37,0,0,0,329.9,209l-15.27,29.6-25.86-12.55a15.56,15.56,0,0,0-5.68,14.2l28,15.34a13.49,13.49,0,0,0,18.31-5.33l8.31-15.1c17.71,21,15.69,85.36,13.67,97.47,13.17,5.92,30.24,5.46,43.19,3.78q1.64-14.34,3.26-28.67A160.18,160.18,0,0,1,400,335.6a133.64,133.64,0,0,0,13.7-3C421.52,266.18,395.88,223.28,386.34,203.82Z"/><path class="cls-6" d="M337.83,229.53,327.6,247.38a12,12,0,0,1-16.31,4.42l-28.14-16.11a13.59,13.59,0,0,0-.06,4.56l28,15.34a13.49,13.49,0,0,0,18.31-5.33l8.31-15.1,5.69-10.34A10.85,10.85,0,0,0,337.83,229.53Z"/><path class="cls-6" d="M346.9,244.31a52.71,52.71,0,0,0,22.79,8.58,67.21,67.21,0,0,1-27-17.8,21.52,21.52,0,0,0,.65-10.27l-5.69,10.34c9.14,10.84,13,33.22,14.37,54A70.92,70.92,0,0,0,346.9,244.31Z"/><path class="cls-19" d="M329.35,250.49l-.11,0a.24.24,0,0,1-.08-.31L344.65,222a.22.22,0,0,1,.39.22l-15.49,28.17A.22.22,0,0,1,329.35,250.49Z"/><path class="cls-19" d="M383.41,238.48a.23.23,0,0,1-.22-.17,157.43,157.43,0,0,0-13.78-35.8.22.22,0,0,1,.39-.21,157.38,157.38,0,0,1,13.82,35.9.22.22,0,0,1-.16.27Z"/><path class="cls-19" d="M312.06,243.82a.19.19,0,0,1-.1,0,.22.22,0,0,1-.1-.3l10-19.3a.22.22,0,0,1,.3-.1.23.23,0,0,1,.1.3l-10,19.31A.24.24,0,0,1,312.06,243.82Z"/><path class="cls-19" d="M379.21,332.85a79.73,79.73,0,0,1-22.69-3.29.22.22,0,0,1,.12-.43,79.41,79.41,0,0,0,32.44,2.65.21.21,0,0,1,.25.19.22.22,0,0,1-.19.25A78.22,78.22,0,0,1,379.21,332.85Z"/><path class="cls-19" d="M392.28,328.38h0a.22.22,0,0,1-.19-.25l3.34-22.64a.22.22,0,0,1,.26-.18.21.21,0,0,1,.18.25l-3.34,22.63A.22.22,0,0,1,392.28,328.38Z"/><path class="cls-19" d="M402.43,315.93a.22.22,0,0,1-.22-.18,64.76,64.76,0,0,0-2-7.75.23.23,0,0,1,.15-.28.23.23,0,0,1,.28.14,65.75,65.75,0,0,1,2,7.81.22.22,0,0,1-.18.26Z"/><path class="cls-19" d="M403.93,330.69a.22.22,0,0,1-.22-.18.23.23,0,0,1,.18-.26l6.6-1.32a.21.21,0,0,1,.26.17.23.23,0,0,1-.18.27L404,330.69Z"/><path class="cls-6" d="M375.18,250.38a39,39,0,0,1-1.2,10.5c18.61-1.8,27-8.41,27-8.41Z"/><path class="cls-4" d="M400.68,250a12.43,12.43,0,0,1,.27,2.46,176.92,176.92,0,0,1-24.51,6.39,30.44,30.44,0,0,0-1.26-8.48c1.83-.46,3.65-.91,5.48-1.35"/><path class="cls-19" d="M376.44,259.08a.21.21,0,0,1-.15-.05.21.21,0,0,1-.08-.17,30,30,0,0,0-1.24-8.42.21.21,0,0,1,0-.17.22.22,0,0,1,.14-.11c1.81-.46,3.65-.91,5.48-1.34a.22.22,0,0,1,.27.16.22.22,0,0,1-.17.27c-1.74.42-3.51.85-5.24,1.29a30.61,30.61,0,0,1,1.19,8,177.89,177.89,0,0,0,24.06-6.27,11.54,11.54,0,0,0-.26-2.27.22.22,0,0,1,.18-.26.21.21,0,0,1,.26.17,12.56,12.56,0,0,1,.27,2.51.22.22,0,0,1-.15.21,176,176,0,0,1-24.54,6.4ZM401,252.47Z"/><path class="cls-19" d="M362.17,457.63h9.54l-2.52-10.54H355.46c-9.87,2.16-20.12,10.54-20.12,10.54h22.34l4.49-2.71Z"/><path class="cls-19" d="M391.61,457.63h9.54l-2.52-10.54H384.9c-9.87,2.16-20.12,10.54-20.12,10.54h22.34l4.49-2.71Z"/><polygon class="cls-16" points="88.16 216.61 109.42 165.66 142.07 174.77 120.82 225.72 88.16 216.61"/><polygon class="cls-26" points="93.04 214.24 111.51 169.97 137.2 177.14 118.73 221.41 93.04 214.24"/><polygon class="cls-8" points="130.85 176.81 131.97 169.97 118.91 166.19 117.79 173.03 130.85 176.81"/><polygon class="cls-9" points="131.97 169.97 133.39 172.35 131.66 171.86 131.97 169.97"/><path class="cls-9" d="M117.79,173l13.06,3.78.62-3.78-.26.42a2.71,2.71,0,0,1-3,1.15l-10.16-3Z"/><polygon class="cls-23" points="77.25 315.71 77.25 444.29 56.19 444.29 48.85 299 77.25 315.71"/><path class="cls-19" d="M73.66,313.6l1.46,25.91,2.13.33v42.28l-6-29.49c-6.25-1-13.64-2.07-19.68-4.31L48.85,299Z"/><polygon class="cls-23" points="105.78 315.71 105.78 444.29 84.62 444.29 77.25 299 105.78 315.71"/><path class="cls-19" d="M105.78,315.71v31.43c-7.15,4.82-15.28,6.13-23.68,6-.63,0-1.25,0-1.87-.07L78.07,313.6,77.25,299Z"/><path class="cls-4" d="M109.19,224.25,110,223a17.46,17.46,0,0,0,1.55-15.63c-3.2-8.3-7.19-17-9.57-24.89H67.9c-7.25,3.7-11.26,12.85-12,20.95s.6,16.26.25,24.39c-.56,12.58-5.21,24.55-8.49,36.71a171.28,171.28,0,0,0-2.83,76.36,106.81,106.81,0,0,0,14.06,4l4.33-23.63,4.2,25.08a93.67,93.67,0,0,0,43.14-4.4c1.36-35.32.61-70.66-4-105.68A18.06,18.06,0,0,1,109.19,224.25Z"/><path class="cls-27" d="M131.69,204.82l1.07-3.93-2.51-2.69a4.29,4.29,0,0,1-.94-1.54l-1.75-4.82a1.34,1.34,0,0,1,.52-1.56h0a1.34,1.34,0,0,1,1.75.24l3.83,4.43,4.09-9.81.64,1a6.46,6.46,0,0,1,1.1,3.59h0l2.2,4.36a3.61,3.61,0,0,1,.22,2.7L138.08,209Z"/><path class="cls-27" d="M90.92,182.44l.45-7.74c3.92,0,7.5-3.33,8.83-7a13.71,13.71,0,0,0,.15-7.9,41,41,0,0,0-2.91-7.46L92.61,142c-1.93-4.12-7.55-5.54-12.09-5.27a13.89,13.89,0,0,0-11.18,6.84c-2.19,3.93-2.13,8.8-.84,13.12s3.68,8.2,6,12l4,6.42-.77,7.29Z"/><path class="cls-19" d="M70.19,240.14a.23.23,0,0,0,.15-.24,156.72,156.72,0,0,1,.32-38.35.24.24,0,0,0-.19-.26.24.24,0,0,0-.26.2A157.7,157.7,0,0,0,69.89,240a.22.22,0,0,0,.25.19Z"/><path class="cls-19" d="M81.64,343.31a79.79,79.79,0,0,0,22.7-3.28.23.23,0,0,0,.15-.28.22.22,0,0,0-.28-.15,79.39,79.39,0,0,1-32.44,2.64.23.23,0,0,0-.25.2.23.23,0,0,0,.2.25A80.06,80.06,0,0,0,81.64,343.31Z"/><path class="cls-19" d="M68.57,338.84h0a.24.24,0,0,0,.19-.26L65.45,316a.22.22,0,0,0-.25-.19A.22.22,0,0,0,65,316l3.34,22.64A.23.23,0,0,0,68.57,338.84Z"/><path class="cls-19" d="M58.42,326.4a.23.23,0,0,0,.22-.18,66.2,66.2,0,0,1,2-7.75.24.24,0,0,0-.14-.29.24.24,0,0,0-.29.15,67.57,67.57,0,0,0-2,7.8.23.23,0,0,0,.18.26Z"/><path class="cls-19" d="M56.92,341.16a.22.22,0,0,0,.22-.19.22.22,0,0,0-.17-.26l-6.6-1.32a.24.24,0,0,0-.27.18.23.23,0,0,0,.18.26l6.6,1.32Z"/><path class="cls-6" d="M85.22,247.47a39.16,39.16,0,0,0,2.94,10.15c-18.65,1.34-28-3.79-28-3.79Z"/><path class="cls-4" d="M60,251.36a12.48,12.48,0,0,0,.15,2.47A176.22,176.22,0,0,0,85.41,256a30.4,30.4,0,0,1-.19-8.57c-1.87-.16-3.74-.29-5.62-.41"/><path class="cls-19" d="M85.4,256.26a178.18,178.18,0,0,1-25.27-2.2.24.24,0,0,1-.18-.19,12.8,12.8,0,0,1-.15-2.52.22.22,0,0,1,.23-.22.23.23,0,0,1,.22.23,12,12,0,0,0,.12,2.28,174.94,174.94,0,0,0,24.77,2.16,30.51,30.51,0,0,1-.17-8.13c-1.78-.14-3.59-.27-5.39-.39a.23.23,0,0,1,0-.45c1.88.12,3.77.26,5.63.41a.3.3,0,0,1,.16.08.26.26,0,0,1,0,.17,29.79,29.79,0,0,0,.18,8.51.23.23,0,0,1,0,.18.29.29,0,0,1-.14.08Zm-25.23-2.42h0Z"/><path class="cls-6" d="M109.19,224.25l.33-.53h0l-9.27-15.35c-.1,3.76.45,7.91,2.62,11a14.69,14.69,0,0,1,2.35,3.74c.67,2,0,4.23-.49,6.31A44.34,44.34,0,0,0,103.5,247a28.16,28.16,0,0,0,5.58,13.21q-1-12-2.56-24A18.06,18.06,0,0,1,109.19,224.25Z"/><path class="cls-4" d="M102,182.44h0a10.38,10.38,0,0,1,9.47,6.14l13,29.13,6.35-14.92c6.24-1,9.68,5.91,9.68,5.91l-8.42,24.4a8.81,8.81,0,0,1-8.33,5.93h0a8.82,8.82,0,0,1-7.54-4.25L98.92,206.16C91.29,192,102,182.44,102,182.44Z"/><path class="cls-6" d="M127.12,210.63l-2.82,6.75,2,4.59C128,217.71,127.12,210.63,127.12,210.63Z"/><path class="cls-19" d="M116.19,235a.23.23,0,0,1-.19-.11L98.73,206.28a.22.22,0,1,1,.38-.23l17.28,28.61a.23.23,0,0,1-.08.31A.27.27,0,0,1,116.19,235Z"/><path class="cls-19" d="M126.92,223.47a.21.21,0,0,1-.2-.13l-9.13-20.46a.22.22,0,0,1,.11-.29.23.23,0,0,1,.3.11l9.13,20.45a.23.23,0,0,1-.12.3Z"/><path class="cls-22" d="M98.47,141.93A15.17,15.17,0,0,0,89.19,131a17.94,17.94,0,0,0-13.62.74,22.43,22.43,0,0,0-12.91,20c0,4.67,1.51,9.21,2,13.87a31.58,31.58,0,0,1-1.79,14c-1.86,5-5,9.51-7.26,14.36s-3.75,10.5-2,15.59c1.57,4.67,5.68,8.22,10.33,9.86a27.22,27.22,0,0,0,14.58.51c5.79-1.23,11.73-4.16,14.17-9.55,1.51-3.34,1.47-7.15,1.39-10.82,0-8.71-.35-17.44-.53-26.15-.09-4.26-.48-8.64-.21-12.89.17-2.65,1.34-4.43,2.66-6.65C98.08,150.25,99.35,146.2,98.47,141.93Z"/><path class="cls-19" d="M100.17,457.63h16.54a10.74,10.74,0,0,0-5.68-5.1l-.45-.17a10.8,10.8,0,0,1-4.72-3.56l-3.4-4.51H90.59a13.36,13.36,0,0,0,1.75,13.34h4.33v-3.84Z"/><path class="cls-19" d="M71.67,457.63H88.21a10.74,10.74,0,0,0-5.68-5.1l-.45-.17a10.8,10.8,0,0,1-4.72-3.56L74,444.29H62.09a13.36,13.36,0,0,0,1.75,13.34h4.33v-3.84Z"/></g></g></svg>